<svg xmlns="http://www.w3.org/2000/svg" viewBox="0 0 360 80" width="360" height="80" role="img" aria-label="DSI co-branded with UW–Madison">
  
  <g transform="translate(8, 14)">
    <path d="M 0 0 L 8 52 L 18 52 L 26 14 L 34 52 L 44 52 L 52 0 L 42 0 L 38 38 L 30 0 L 22 0 L 14 38 L 10 0 Z" fill="#C5050C"></path>
  </g>
  
  <line x1="76" y1="14" x2="76" y2="66" stroke="#D7D1C4" stroke-width="1"></line>
  
  <g transform="translate(94, 14)">
    <g fill="#1C1A19">
      <circle cx="6" cy="6" r="2.4"></circle>
      <circle cx="16" cy="6" r="2.4"></circle>
      <circle cx="26" cy="6" r="2.4"></circle>
      <circle cx="36" cy="6" r="2.4"></circle>
      <circle cx="6" cy="16" r="2.4"></circle>
      <circle cx="16" cy="16" r="2.4"></circle>
      <circle cx="26" cy="16" r="2.4"></circle>
      <circle cx="36" cy="16" r="2.4"></circle>
      <rect x="3.6" y="23" width="34.8" height="5" rx="2.5" fill="#C5050C"></rect>
      <circle cx="6" cy="36" r="2.4"></circle>
      <circle cx="16" cy="36" r="2.4"></circle>
      <circle cx="26" cy="36" r="2.4"></circle>
      <circle cx="36" cy="36" r="2.4"></circle>
    </g>
  </g>
  
  <text x="148" y="36" font-family="Red Hat Display, sans-serif" font-weight="900" font-size="20" fill="#1C1A19" letter-spacing="-0.5">UW–Madison</text>
  <text x="148" y="58" font-family="Red Hat Display, sans-serif" font-weight="700" font-size="14" fill="#4A4644" letter-spacing="0">Data Science Institute</text>
</svg>